<?xml version="1.0" encoding="utf-8"?>
<!-- Generator: Adobe Illustrator 16.0.0, SVG Export Plug-In . SVG Version: 6.00 Build 0)  -->
<!DOCTYPE svg PUBLIC "-//W3C//DTD SVG 1.1//EN" "http://www.w3.org/Graphics/SVG/1.1/DTD/svg11.dtd">
<svg version="1.1" id="Layer_1" xmlns="http://www.w3.org/2000/svg" xmlns:xlink="http://www.w3.org/1999/xlink" x="0px" y="0px"
	 width="128px" height="128px" viewBox="0 0 128 128" enable-background="new 0 0 128 128" xml:space="preserve">
<g transform="rotate(0 50 50)">
	<path fill="#3ED133" d="M64,35.2L64,35.2c3.182,0,5.76,1.433,5.76,3.2l0,0c0,1.768-2.578,3.2-5.76,3.2l0,0
		c-3.181,0-5.76-1.433-5.76-3.2l0,0C58.24,36.633,60.819,35.2,64,35.2z	">
<animate  fill="remove" restart="always" calcMode="linear" additive="replace" accumulate="none" repeatCount="indefinite" begin="-1.1029411764705883s" dur="1.1764705882352942s" keyTimes="0;1" values="1;0" attributeName="opacity">
			</animate>
	</path>
</g>
<g transform="rotate(22.5 50 50)">
	<path fill="#3ED133" d="M68.292,28.777L68.292,28.777c3.182,0,5.76,1.433,5.76,3.201l0,0c-0.001,1.767-2.578,3.199-5.76,3.2l0,0
		c-3.182,0-5.76-1.433-5.761-3.2l0,0C62.532,30.21,65.11,28.777,68.292,28.777z	">
<animate  fill="remove" restart="always" calcMode="linear" additive="replace" accumulate="none" repeatCount="indefinite" begin="-1.0294117647058825s" dur="1.1764705882352942s" keyTimes="0;1" values="1;0" attributeName="opacity">
			</animate>
	</path>
</g>
<g transform="rotate(45 50 50)">
	<path fill="#3ED133" d="M69.799,21.2L69.799,21.2c3.181,0,5.759,1.434,5.76,3.201l0,0c0,1.767-2.579,3.2-5.76,3.199l0,0
		c-3.181,0.001-5.76-1.432-5.76-3.2l0,0C64.04,22.632,66.618,21.2,69.799,21.2z	">
<animate  fill="remove" restart="always" calcMode="linear" additive="replace" accumulate="none" repeatCount="indefinite" begin="-0.9558823529411765s" dur="1.1764705882352942s" keyTimes="0;1" values="1;0" attributeName="opacity">
			</animate>
	</path>
</g>
<g transform="rotate(67.5 50 50)">
	<path fill="#3ED133" d="M68.292,13.624L68.292,13.624c3.181-0.001,5.76,1.432,5.76,3.2l0,0c0,1.767-2.579,3.2-5.76,3.199l0,0
		c-3.181,0-5.76-1.432-5.76-3.2l0,0C62.532,15.056,65.111,13.623,68.292,13.624z	">
<animate  fill="remove" restart="always" calcMode="linear" additive="replace" accumulate="none" repeatCount="indefinite" begin="-0.8823529411764706s" dur="1.1764705882352942s" keyTimes="0;1" values="1;0" attributeName="opacity">
			</animate>
	</path>
</g>
<g transform="rotate(90 50 50)">
	<path fill="#3ED133" d="M64,7.2L64,7.2c3.182,0,5.76,1.433,5.76,3.2l0,0c0,1.768-2.578,3.199-5.76,3.199l0,0
		c-3.181,0-5.76-1.432-5.76-3.199l0,0C58.24,8.633,60.819,7.2,64,7.2z	">
<animate  fill="remove" restart="always" calcMode="linear" additive="replace" accumulate="none" repeatCount="indefinite" begin="-0.8088235294117647s" dur="1.1764705882352942s" keyTimes="0;1" values="1;0" attributeName="opacity">
			</animate>
	</path>
</g>
<g transform="rotate(112.5 50 50)">
	<path fill="#3ED133" d="M57.577,2.908L57.577,2.908c3.181-0.001,5.76,1.432,5.76,3.2l0,0c0,1.768-2.578,3.2-5.76,3.2l0,0
		c-3.181,0.001-5.76-1.432-5.76-3.199l0,0C51.817,4.341,54.395,2.908,57.577,2.908z	">
<animate  fill="remove" restart="always" calcMode="linear" additive="replace" accumulate="none" repeatCount="indefinite" begin="-0.7352941176470589s" dur="1.1764705882352942s" keyTimes="0;1" values="1;0" attributeName="opacity">
			</animate>
	</path>
</g>
<g transform="rotate(135 50 50)">
	<path fill="#3ED133" d="M50,1.4L50,1.4c3.181,0.001,5.759,1.434,5.76,3.201l0,0C55.761,6.368,53.181,7.801,50,7.8l0,0
		c-3.181,0.001-5.76-1.432-5.76-3.199l0,0C44.241,2.834,46.819,1.401,50,1.4z	">
<animate  fill="remove" restart="always" calcMode="linear" additive="replace" accumulate="none" repeatCount="indefinite" begin="-0.6617647058823529s" dur="1.1764705882352942s" keyTimes="0;1" values="1;0" attributeName="opacity">
			</animate>
	</path>
</g>
<g transform="rotate(157.5 50 50)">
	<path fill="#3ED133" d="M42.423,2.908L42.423,2.908c3.182,0,5.76,1.433,5.761,3.2l0,0c0,1.767-2.579,3.2-5.76,3.199l0,0
		c-3.182,0-5.759-1.432-5.76-3.2l0,0C36.663,4.34,39.242,2.908,42.423,2.908z	">
<animate  fill="remove" restart="always" calcMode="linear" additive="replace" accumulate="none" repeatCount="indefinite" begin="-0.5882352941176471s" dur="1.1764705882352942s" keyTimes="0;1" values="1;0" attributeName="opacity">
			</animate>
	</path>
</g>
<g transform="rotate(180 50 50)">
	<path fill="#3ED133" d="M36,7.2L36,7.2c3.181,0,5.76,1.433,5.76,3.2l0,0c0,1.768-2.579,3.199-5.76,3.199l0,0
		c-3.182,0-5.76-1.432-5.76-3.199l0,0C30.24,8.633,32.818,7.2,36,7.2z	">
<animate  fill="remove" restart="always" calcMode="linear" additive="replace" accumulate="none" repeatCount="indefinite" begin="-0.5147058823529412s" dur="1.1764705882352942s" keyTimes="0;1" values="1;0" attributeName="opacity">
			</animate>
	</path>
</g>
<g transform="rotate(202.5 50 50)">
	<path fill="#3ED133" d="M31.708,13.623L31.708,13.623c3.181-0.001,5.759,1.432,5.76,3.2l0,0c0,1.767-2.579,3.2-5.76,3.2l0,0
		c-3.181,0.001-5.76-1.432-5.76-3.199l0,0C25.948,15.056,28.527,13.623,31.708,13.623z	">
<animate  fill="remove" restart="always" calcMode="linear" additive="replace" accumulate="none" repeatCount="indefinite" begin="-0.4411764705882353s" dur="1.1764705882352942s" keyTimes="0;1" values="1;0" attributeName="opacity">
			</animate>
	</path>
</g>
<g transform="rotate(225 50 50)">
	<path fill="#3ED133" d="M30.201,21.199L30.201,21.199c3.182,0,5.76,1.433,5.76,3.2l0,0c0,1.767-2.579,3.2-5.76,3.2l0,0
		c-3.18,0.001-5.76-1.432-5.76-3.199l0,0C24.442,22.633,27.02,21.2,30.201,21.199z	">
<animate  fill="remove" restart="always" calcMode="linear" additive="replace" accumulate="none" repeatCount="indefinite" begin="-0.36764705882352944s" dur="1.1764705882352942s" keyTimes="0;1" values="1;0" attributeName="opacity">
			</animate>
	</path>
</g>
<g transform="rotate(247.5 50 50)">
	<path fill="#3ED133" d="M31.708,28.776L31.708,28.776c3.182,0,5.76,1.433,5.761,3.201l0,0c0,1.767-2.579,3.2-5.761,3.2l0,0
		c-3.182,0-5.759-1.433-5.76-3.2l0,0C25.948,30.209,28.526,28.776,31.708,28.776z	">
<animate  fill="remove" restart="always" calcMode="linear" additive="replace" accumulate="none" repeatCount="indefinite" begin="-0.29411764705882354s" dur="1.1764705882352942s" keyTimes="0;1" values="1;0" attributeName="opacity">
			</animate>
	</path>
</g>
<g transform="rotate(270 50 50)">
	<path fill="#3ED133" d="M36,35.2L36,35.2c3.181,0,5.76,1.433,5.76,3.2l0,0c0,1.768-2.579,3.2-5.76,3.2l0,0
		c-3.182,0-5.76-1.433-5.76-3.2l0,0C30.24,36.633,32.818,35.2,36,35.2z	">
<animate  fill="remove" restart="always" calcMode="linear" additive="replace" accumulate="none" repeatCount="indefinite" begin="-0.22058823529411764s" dur="1.1764705882352942s" keyTimes="0;1" values="1;0" attributeName="opacity">
			</animate>
	</path>
</g>
<g transform="rotate(292.5 50 50)">
	<path fill="#3ED133" d="M42.423,39.492L42.423,39.492c3.181,0,5.76,1.433,5.76,3.2l0,0c0,1.767-2.579,3.2-5.76,3.2l0,0
		c-3.181,0-5.76-1.433-5.76-3.2l0,0C36.663,40.925,39.242,39.492,42.423,39.492z	">
<animate  fill="remove" restart="always" calcMode="linear" additive="replace" accumulate="none" repeatCount="indefinite" begin="-0.14705882352941177s" dur="1.1764705882352942s" keyTimes="0;1" values="1;0" attributeName="opacity">
			</animate>
	</path>
</g>
<g transform="rotate(315 50 50)">
	<path fill="#3ED133" d="M50,40.999L50,40.999c3.181,0,5.76,1.433,5.76,3.2l0,0c0,1.767-2.579,3.2-5.76,3.2l0,0
		c-3.181,0-5.76-1.433-5.76-3.2l0,0C44.24,42.432,46.818,40.999,50,40.999z	">
<animate  fill="remove" restart="always" calcMode="linear" additive="replace" accumulate="none" repeatCount="indefinite" begin="-0.07352941176470588s" dur="1.1764705882352942s" keyTimes="0;1" values="1;0" attributeName="opacity">
			</animate>
	</path>
</g>
<g transform="rotate(337.5 50 50)">
	<path fill="#3ED133" d="M57.576,39.492L57.576,39.492c3.182,0,5.76,1.433,5.76,3.2l0,0c0,1.767-2.579,3.2-5.76,3.2l0,0
		c-3.181,0-5.76-1.433-5.76-3.2l0,0C51.816,40.925,54.395,39.492,57.576,39.492z	">
<animate  fill="remove" restart="always" calcMode="linear" additive="replace" accumulate="none" repeatCount="indefinite" begin="0s" dur="1.1764705882352942s" keyTimes="0;1" values="1;0" attributeName="opacity">
			</animate>
	</path>
</g>
</svg>
